# Blender v2.93.4 OBJ File: 'PoolStick.blend'
# www.blender.org
mtllib PoolStick.mtl
o Cylinder
v 0.000000 0.120001 0.000000
v -0.000000 0.419999 50.000000
v 0.019509 0.118079 0.000000
v 0.078036 0.412313 50.000000
v 0.038268 0.112389 0.000000
v 0.153073 0.389551 50.000000
v 0.055557 0.103148 0.000000
v 0.222228 0.352587 50.000000
v 0.070711 0.090712 0.000000
v 0.282843 0.302842 50.000000
v 0.083147 0.075558 0.000000
v 0.332588 0.242227 50.000000
v 0.092388 0.058269 0.000000
v 0.369552 0.173072 50.000000
v 0.098079 0.039510 0.000000
v 0.392314 0.098035 50.000000
v 0.100000 0.020001 0.000000
v 0.400000 0.019999 50.000000
v 0.098079 0.000492 0.000000
v 0.392314 -0.058037 50.000000
v 0.092388 -0.018267 0.000000
v 0.369552 -0.133074 50.000000
v 0.083147 -0.035556 0.000000
v 0.332588 -0.202229 50.000000
v 0.070711 -0.050710 0.000000
v 0.282843 -0.262844 50.000000
v 0.055557 -0.063146 0.000000
v 0.222228 -0.312589 50.000000
v 0.038268 -0.072387 0.000000
v 0.153073 -0.349553 50.000000
v 0.019509 -0.078078 0.000000
v 0.078036 -0.372315 50.000000
v -0.000000 -0.079999 0.000000
v -0.000000 -0.380001 50.000000
v -0.019509 -0.078078 0.000000
v -0.078036 -0.372315 50.000000
v -0.038268 -0.072387 0.000000
v -0.153073 -0.349553 50.000000
v -0.055557 -0.063146 0.000000
v -0.222228 -0.312589 50.000000
v -0.070711 -0.050710 0.000000
v -0.282843 -0.262844 50.000000
v -0.083147 -0.035556 0.000000
v -0.332588 -0.202229 50.000000
v -0.092388 -0.018267 0.000000
v -0.369552 -0.133074 50.000000
v -0.098079 0.000492 0.000000
v -0.392314 -0.058037 50.000000
v -0.100000 0.020001 0.000000
v -0.400000 0.019999 50.000000
v -0.098079 0.039510 0.000000
v -0.392314 0.098035 50.000000
v -0.092388 0.058269 0.000000
v -0.369552 0.173073 50.000000
v -0.083147 0.075558 0.000000
v -0.332588 0.242227 50.000000
v -0.070711 0.090712 0.000000
v -0.282843 0.302842 50.000000
v -0.055557 0.103148 0.000000
v -0.222228 0.352587 50.000000
v -0.038268 0.112389 0.000000
v -0.153073 0.389551 50.000000
v -0.019509 0.118079 0.000000
v -0.078036 0.412313 50.000000
v -0.000000 0.270000 38.999962
v 0.048773 0.265196 39.999962
v 0.095671 0.250970 40.999962
v 0.138893 0.227867 39.999962
v 0.176777 0.196777 38.999962
v 0.207867 0.158893 39.999962
v 0.230970 0.115671 40.999962
v 0.245196 0.068773 39.999962
v 0.250000 0.020000 38.999962
v 0.245196 -0.028773 39.999962
v 0.230970 -0.075671 40.999962
v 0.207867 -0.118892 39.999962
v 0.176777 -0.156777 38.999962
v 0.138893 -0.187867 39.999962
v 0.095671 -0.210970 40.999962
v 0.048773 -0.225196 39.999962
v -0.000000 -0.230000 38.999962
v -0.048773 -0.225196 39.999962
v -0.095671 -0.210970 40.999962
v -0.138893 -0.187867 39.999962
v -0.176777 -0.156777 38.999962
v -0.207867 -0.118893 39.999962
v -0.230970 -0.075671 40.999962
v -0.245196 -0.028773 39.999962
v -0.250000 0.020000 38.999962
v -0.245196 0.068773 39.999962
v -0.230970 0.115671 40.999962
v -0.207867 0.158893 39.999962
v -0.176777 0.196777 38.999962
v -0.138893 0.227867 39.999962
v -0.095671 0.250970 40.999962
v -0.048773 0.265196 39.999962
v 0.019517 0.118120 0.499691
v 0.038284 0.112427 0.499691
v 0.055580 0.103182 0.499691
v 0.070740 0.090741 0.499691
v 0.083182 0.075581 0.499691
v 0.092427 0.058285 0.499691
v 0.098120 0.039518 0.499691
v 0.100042 0.020000 0.499691
v 0.098120 0.000483 0.499691
v 0.092427 -0.018284 0.499691
v 0.083182 -0.035580 0.499691
v 0.070740 -0.050740 0.499691
v 0.055580 -0.063181 0.499691
v 0.038284 -0.072426 0.499691
v 0.019517 -0.078119 0.499691
v -0.000000 -0.080041 0.499691
v -0.019517 -0.078119 0.499691
v -0.038284 -0.072426 0.499691
v -0.055580 -0.063181 0.499691
v -0.070740 -0.050740 0.499691
v -0.083182 -0.035580 0.499691
v -0.092427 -0.018284 0.499691
v -0.098120 0.000483 0.499691
v -0.100042 0.020001 0.499691
v -0.098120 0.039518 0.499691
v -0.092427 0.058285 0.499691
v -0.083182 0.075581 0.499691
v -0.070740 0.090741 0.499691
v -0.055580 0.103182 0.499691
v -0.038284 0.112427 0.499691
v -0.019517 0.118120 0.499691
v 0.000000 0.120042 0.499691
vt 0.703178 0.485388
vt 0.985388 0.296822
vt 0.796822 0.014612
vt 1.000000 0.625000
vt 0.968750 0.500000
vt 1.000000 0.500000
vt 0.968750 0.625000
vt 0.937500 0.500000
vt 0.937500 0.625000
vt 0.906250 0.500000
vt 0.906250 0.625000
vt 0.875000 0.500000
vt 0.875000 0.625000
vt 0.843750 0.500000
vt 0.843750 0.625000
vt 0.812500 0.500000
vt 0.812500 0.625000
vt 0.781250 0.500000
vt 0.781250 0.625000
vt 0.750000 0.500000
vt 0.750000 0.625000
vt 0.718750 0.500000
vt 0.718750 0.625000
vt 0.687500 0.500000
vt 0.687500 0.625000
vt 0.656250 0.500000
vt 0.656250 0.625000
vt 0.625000 0.500000
vt 0.625000 0.625000
vt 0.593750 0.500000
vt 0.593750 0.625000
vt 0.562500 0.500000
vt 0.562500 0.625000
vt 0.531250 0.500000
vt 0.531250 0.625000
vt 0.500000 0.500000
vt 0.468750 0.625000
vt 0.468750 0.500000
vt 0.437500 0.625000
vt 0.437500 0.500000
vt 0.406250 0.625000
vt 0.406250 0.500000
vt 0.375000 0.625000
vt 0.375000 0.500000
vt 0.343750 0.625000
vt 0.343750 0.500000
vt 0.312500 0.625000
vt 0.312500 0.500000
vt 0.281250 0.625000
vt 0.281250 0.500000
vt 0.250000 0.625000
vt 0.250000 0.500000
vt 0.218750 0.625000
vt 0.218750 0.500000
vt 0.187500 0.625000
vt 0.187500 0.500000
vt 0.156250 0.625000
vt 0.156250 0.500000
vt 0.125000 0.625000
vt 0.125000 0.500000
vt 0.093750 0.625000
vt 0.093750 0.500000
vt 0.062500 0.625000
vt 0.062500 0.500000
vt 0.031250 0.625000
vt 0.031250 0.500000
vt 0.000000 0.625000
vt 0.000000 0.500000
vt 0.750000 0.490000
vt 0.796822 0.485388
vt 0.841844 0.471731
vt 0.883337 0.449553
vt 0.919706 0.419706
vt 0.949553 0.383337
vt 0.971731 0.341844
vt 0.990000 0.250000
vt 0.949553 0.116663
vt 0.985388 0.203178
vt 0.971731 0.158156
vt 0.919706 0.080294
vt 0.883337 0.050447
vt 0.841844 0.028269
vt 0.750000 0.010000
vt 0.703178 0.014612
vt 0.658156 0.028269
vt 0.616663 0.050447
vt 0.580294 0.080294
vt 0.550447 0.116663
vt 0.528269 0.158156
vt 0.514612 0.203178
vt 0.510000 0.250000
vt 0.550447 0.383337
vt 0.514612 0.296822
vt 0.528269 0.341844
vt 0.580294 0.419706
vt 0.616663 0.449553
vt 0.658156 0.471731
vt 0.500000 0.625000
vt 0.000000 0.750000
vt 0.031250 0.750000
vt 0.093750 0.750000
vt 0.125000 0.750000
vt 0.156250 0.750000
vt 0.218750 0.750000
vt 0.250000 0.750000
vt 0.281250 0.750000
vt 0.343750 0.750000
vt 0.375000 0.750000
vt 0.406250 0.750000
vt 0.468750 0.750000
vt 0.500000 0.750000
vt 0.531250 0.750000
vt 0.593750 0.750000
vt 0.625000 0.750000
vt 0.656250 0.750000
vt 0.718750 0.750000
vt 0.750000 0.750000
vt 0.781250 0.750000
vt 0.843750 0.750000
vt 0.875000 0.750000
vt 0.906250 0.750000
vt 0.968750 0.750000
vt 1.000000 0.750000
vt 0.062500 0.750000
vt 0.187500 0.750000
vt 0.312500 0.750000
vt 0.437500 0.750000
vt 0.562500 0.750000
vt 0.687500 0.750000
vt 0.812500 0.750000
vt 0.937500 0.750000
vt 1.000000 1.000000
vt 0.968750 1.000000
vt 0.906250 1.000000
vt 0.875000 1.000000
vt 0.843750 1.000000
vt 0.781250 1.000000
vt 0.750000 1.000000
vt 0.718750 1.000000
vt 0.656250 1.000000
vt 0.625000 1.000000
vt 0.593750 1.000000
vt 0.531250 1.000000
vt 0.500000 1.000000
vt 0.468750 1.000000
vt 0.406250 1.000000
vt 0.375000 1.000000
vt 0.343750 1.000000
vt 0.281250 1.000000
vt 0.250000 1.000000
vt 0.218750 1.000000
vt 0.156250 1.000000
vt 0.125000 1.000000
vt 0.093750 1.000000
vt 0.158156 0.028269
vt 0.471731 0.158156
vt 0.341844 0.471731
vt 0.031250 1.000000
vt 0.000000 1.000000
vt 0.937500 1.000000
vt 0.812500 1.000000
vt 0.687500 1.000000
vt 0.562500 1.000000
vt 0.437500 1.000000
vt 0.312500 1.000000
vt 0.187500 1.000000
vt 0.062500 1.000000
vt 0.296822 0.485388
vt 0.250000 0.490000
vt 0.203178 0.485388
vt 0.158156 0.471731
vt 0.116663 0.449553
vt 0.028269 0.341844
vt 0.080294 0.419706
vt 0.050447 0.383337
vt 0.014612 0.296822
vt 0.010000 0.250000
vt 0.014612 0.203178
vt 0.028269 0.158156
vt 0.050447 0.116663
vt 0.080294 0.080294
vt 0.116663 0.050447
vt 0.203178 0.014612
vt 0.250000 0.010000
vt 0.296822 0.014612
vt 0.341844 0.028269
vt 0.383337 0.050447
vt 0.419706 0.080294
vt 0.449553 0.116663
vt 0.485388 0.203178
vt 0.471731 0.341844
vt 0.490000 0.250000
vt 0.485388 0.296822
vt 0.449553 0.383337
vt 0.419706 0.419706
vt 0.383337 0.449553
vn 0.0000 0.0000 -1.0000
vn 0.0980 0.9952 -0.0001
vn 0.2903 0.9569 -0.0001
vn 0.4714 0.8819 -0.0001
vn 0.6344 0.7730 -0.0001
vn 0.7730 0.6344 -0.0001
vn 0.8819 0.4714 -0.0001
vn 0.9569 0.2903 -0.0001
vn 0.9952 0.0980 -0.0001
vn 0.9952 -0.0980 -0.0001
vn 0.9569 -0.2903 -0.0001
vn 0.8819 -0.4714 -0.0001
vn 0.7730 -0.6344 -0.0001
vn 0.6344 -0.7730 -0.0001
vn 0.4714 -0.8819 -0.0001
vn 0.2903 -0.9569 -0.0001
vn 0.0980 -0.9952 -0.0001
vn -0.0980 -0.9952 -0.0001
vn -0.2903 -0.9569 -0.0001
vn -0.4714 -0.8819 -0.0001
vn -0.6344 -0.7730 -0.0001
vn -0.7730 -0.6344 -0.0001
vn -0.8819 -0.4714 -0.0001
vn -0.9569 -0.2903 -0.0001
vn -0.9952 -0.0980 -0.0001
vn -0.9952 0.0980 -0.0001
vn -0.9569 0.2903 -0.0001
vn -0.8819 0.4714 -0.0001
vn -0.7730 0.6344 -0.0001
vn -0.6344 0.7730 -0.0001
vn -0.4714 0.8819 -0.0001
vn -0.2903 0.9569 -0.0001
vn -0.0980 0.9952 -0.0001
vn -0.0980 0.9952 -0.0039
vn -0.2903 0.9569 -0.0038
vn -0.4714 0.8819 -0.0038
vn -0.6344 0.7730 -0.0039
vn -0.7730 0.6344 -0.0039
vn -0.8819 0.4714 -0.0038
vn -0.9569 0.2903 -0.0038
vn -0.9952 0.0980 -0.0039
vn -0.9952 -0.0980 -0.0039
vn -0.9569 -0.2903 -0.0038
vn -0.8819 -0.4714 -0.0038
vn -0.7730 -0.6344 -0.0039
vn -0.6344 -0.7730 -0.0039
vn -0.4714 -0.8819 -0.0038
vn -0.2903 -0.9569 -0.0038
vn -0.0980 -0.9952 -0.0039
vn 0.0980 -0.9952 -0.0039
vn 0.2903 -0.9569 -0.0038
vn 0.4714 -0.8819 -0.0038
vn 0.6344 -0.7730 -0.0039
vn 0.7730 -0.6344 -0.0039
vn 0.8819 -0.4714 -0.0038
vn 0.9569 -0.2903 -0.0038
vn 0.9952 -0.0980 -0.0039
vn 0.9952 0.0980 -0.0039
vn 0.9569 0.2903 -0.0038
vn 0.8819 0.4714 -0.0038
vn 0.7730 0.6344 -0.0039
vn 0.6344 0.7730 -0.0039
vn 0.4714 0.8819 -0.0038
vn 0.2903 0.9569 -0.0038
vn 0.0980 0.9952 -0.0039
vn -0.1748 0.9846 -0.0038
vn -0.3617 0.9323 -0.0037
vn -0.4034 0.9150 -0.0037
vn -0.5726 0.8198 -0.0038
vn -0.8198 0.5726 -0.0038
vn -0.9150 0.4034 -0.0037
vn -0.9323 0.3617 -0.0037
vn -0.9846 0.1748 -0.0038
vn -0.9846 -0.1748 -0.0038
vn -0.9323 -0.3617 -0.0037
vn -0.9150 -0.4034 -0.0037
vn -0.8198 -0.5726 -0.0038
vn -0.5726 -0.8198 -0.0038
vn -0.4034 -0.9150 -0.0037
vn -0.3617 -0.9323 -0.0037
vn -0.1748 -0.9846 -0.0038
vn 0.1748 -0.9846 -0.0038
vn 0.3617 -0.9323 -0.0037
vn 0.4034 -0.9150 -0.0037
vn 0.5726 -0.8198 -0.0038
vn 0.8198 -0.5726 -0.0038
vn 0.9150 -0.4034 -0.0037
vn 0.9323 -0.3617 -0.0037
vn 0.9846 -0.1748 -0.0038
vn 0.9846 0.1748 -0.0038
vn 0.9323 0.3617 -0.0037
vn 0.9150 0.4034 -0.0037
vn 0.8198 0.5726 -0.0038
vn 0.5726 0.8198 -0.0038
vn 0.4034 0.9150 -0.0037
vn 0.3617 0.9323 -0.0037
vn 0.1748 0.9846 -0.0038
vn 0.3536 0.9353 -0.0128
vn 0.5497 0.8353 -0.0139
vn 0.2019 0.9793 -0.0139
vn 0.4113 0.9114 -0.0128
vn 0.9114 0.4113 -0.0128
vn 0.9793 0.2019 -0.0139
vn 0.8353 0.5497 -0.0139
vn 0.9353 0.3536 -0.0128
vn 0.9353 -0.3536 -0.0128
vn 0.8353 -0.5497 -0.0139
vn 0.9793 -0.2019 -0.0139
vn 0.9114 -0.4113 -0.0128
vn 0.4113 -0.9114 -0.0128
vn 0.2019 -0.9793 -0.0139
vn 0.5497 -0.8353 -0.0139
vn 0.3536 -0.9353 -0.0128
vn -0.3536 -0.9353 -0.0128
vn -0.5497 -0.8353 -0.0139
vn -0.2019 -0.9793 -0.0139
vn -0.4113 -0.9114 -0.0128
vn -0.9114 -0.4113 -0.0128
vn -0.9793 -0.2019 -0.0139
vn -0.8353 -0.5497 -0.0139
vn -0.9353 -0.3536 -0.0128
vn -0.9353 0.3536 -0.0128
vn -0.8353 0.5497 -0.0139
vn -0.9793 0.2019 -0.0139
vn -0.9114 0.4113 -0.0128
vn -0.4113 0.9114 -0.0128
vn -0.2019 0.9793 -0.0139
vn 0.0000 0.0000 1.0000
vn -0.5497 0.8353 -0.0139
vn -0.3536 0.9353 -0.0128
vn 0.0980 0.9951 -0.0149
vn 0.2902 0.9568 -0.0166
vn 0.4713 0.8818 -0.0166
vn 0.6343 0.7729 -0.0149
vn 0.7729 0.6343 -0.0149
vn 0.8818 0.4713 -0.0166
vn 0.9568 0.2902 -0.0166
vn 0.9951 0.0980 -0.0149
vn 0.9951 -0.0980 -0.0149
vn 0.9568 -0.2902 -0.0166
vn 0.8818 -0.4713 -0.0166
vn 0.7729 -0.6343 -0.0149
vn 0.6343 -0.7729 -0.0149
vn 0.4713 -0.8818 -0.0166
vn 0.2902 -0.9568 -0.0166
vn 0.0980 -0.9951 -0.0149
vn -0.0980 -0.9951 -0.0149
vn -0.2902 -0.9568 -0.0166
vn -0.4713 -0.8818 -0.0166
vn -0.6343 -0.7729 -0.0149
vn -0.7729 -0.6343 -0.0149
vn -0.8818 -0.4713 -0.0166
vn -0.9568 -0.2902 -0.0166
vn -0.9951 -0.0980 -0.0149
vn -0.9951 0.0980 -0.0149
vn -0.9568 0.2902 -0.0166
vn -0.8818 0.4713 -0.0166
vn -0.7729 0.6343 -0.0149
vn -0.6343 0.7729 -0.0149
vn -0.4713 0.8818 -0.0166
vn 0.0001 0.0000 1.0000
vn 0.0004 0.0000 1.0000
vn 0.0002 0.0000 1.0000
vn -0.0001 0.0000 1.0000
vn -0.0003 0.0000 1.0000
vn -0.0004 0.0000 1.0000
vn 0.0003 0.0000 1.0000
vn -0.2902 0.9568 -0.0166
vn -0.0980 0.9951 -0.0149
g Cylinder_Cylinder_Tip
usemtl Tip
s off
f 63/1/1 15/2/1 31/3/1
f 128/4/2 3/5/2 1/6/2
f 97/7/3 5/8/3 3/5/3
f 98/9/4 7/10/4 5/8/4
f 99/11/5 9/12/5 7/10/5
f 100/13/6 11/14/6 9/12/6
f 101/15/7 13/16/7 11/14/7
f 102/17/8 15/18/8 13/16/8
f 103/19/9 17/20/9 15/18/9
f 104/21/10 19/22/10 17/20/10
f 105/23/11 21/24/11 19/22/11
f 106/25/12 23/26/12 21/24/12
f 107/27/13 25/28/13 23/26/13
f 108/29/14 27/30/14 25/28/14
f 109/31/15 29/32/15 27/30/15
f 110/33/16 31/34/16 29/32/16
f 111/35/17 33/36/17 31/34/17
f 33/36/18 113/37/18 35/38/18
f 35/38/19 114/39/19 37/40/19
f 37/40/20 115/41/20 39/42/20
f 39/42/21 116/43/21 41/44/21
f 41/44/22 117/45/22 43/46/22
f 43/46/23 118/47/23 45/48/23
f 45/48/24 119/49/24 47/50/24
f 47/50/25 120/51/25 49/52/25
f 49/52/26 121/53/26 51/54/26
f 51/54/27 122/55/27 53/56/27
f 53/56/28 123/57/28 55/58/28
f 55/58/29 124/59/29 57/60/29
f 57/60/30 125/61/30 59/62/30
f 59/62/31 126/63/31 61/64/31
f 61/64/32 127/65/32 63/66/32
f 63/66/33 128/67/33 1/68/33
f 63/1/1 1/69/1 3/70/1
f 3/70/1 5/71/1 7/72/1
f 7/72/1 9/73/1 11/74/1
f 11/74/1 13/75/1 7/72/1
f 13/75/1 15/2/1 7/72/1
f 15/2/1 17/76/1 23/77/1
f 17/76/1 19/78/1 23/77/1
f 19/78/1 21/79/1 23/77/1
f 23/77/1 25/80/1 27/81/1
f 27/81/1 29/82/1 31/3/1
f 31/3/1 33/83/1 35/84/1
f 35/84/1 37/85/1 31/3/1
f 37/85/1 39/86/1 31/3/1
f 39/86/1 41/87/1 43/88/1
f 43/88/1 45/89/1 47/90/1
f 47/90/1 49/91/1 55/92/1
f 49/91/1 51/93/1 55/92/1
f 51/93/1 53/94/1 55/92/1
f 55/92/1 57/95/1 59/96/1
f 59/96/1 61/97/1 55/92/1
f 61/97/1 63/1/1 55/92/1
f 63/1/1 3/70/1 7/72/1
f 23/77/1 27/81/1 15/2/1
f 27/81/1 31/3/1 15/2/1
f 39/86/1 43/88/1 47/90/1
f 63/1/1 7/72/1 15/2/1
f 31/3/1 39/86/1 47/90/1
f 47/90/1 55/92/1 31/3/1
f 55/92/1 63/1/1 31/3/1
f 128/4/2 97/7/2 3/5/2
f 97/7/3 98/9/3 5/8/3
f 98/9/4 99/11/4 7/10/4
f 99/11/5 100/13/5 9/12/5
f 100/13/6 101/15/6 11/14/6
f 101/15/7 102/17/7 13/16/7
f 102/17/8 103/19/8 15/18/8
f 103/19/9 104/21/9 17/20/9
f 104/21/10 105/23/10 19/22/10
f 105/23/11 106/25/11 21/24/11
f 106/25/12 107/27/12 23/26/12
f 107/27/13 108/29/13 25/28/13
f 108/29/14 109/31/14 27/30/14
f 109/31/15 110/33/15 29/32/15
f 110/33/16 111/35/16 31/34/16
f 111/35/17 112/98/17 33/36/17
f 33/36/18 112/98/18 113/37/18
f 35/38/19 113/37/19 114/39/19
f 37/40/20 114/39/20 115/41/20
f 39/42/21 115/41/21 116/43/21
f 41/44/22 116/43/22 117/45/22
f 43/46/23 117/45/23 118/47/23
f 45/48/24 118/47/24 119/49/24
f 47/50/25 119/49/25 120/51/25
f 49/52/26 120/51/26 121/53/26
f 51/54/27 121/53/27 122/55/27
f 53/56/28 122/55/28 123/57/28
f 55/58/29 123/57/29 124/59/29
f 57/60/30 124/59/30 125/61/30
f 59/62/31 125/61/31 126/63/31
f 61/64/32 126/63/32 127/65/32
f 63/66/33 127/65/33 128/67/33
g Cylinder_Cylinder_Middle
usemtl Middle
f 127/65/34 65/99/34 128/67/34
f 126/63/35 96/100/35 127/65/35
f 94/101/36 126/63/36 125/61/36
f 93/102/37 125/61/37 124/59/37
f 123/57/38 93/102/38 124/59/38
f 122/55/39 92/103/39 123/57/39
f 90/104/40 122/55/40 121/53/40
f 89/105/41 121/53/41 120/51/41
f 119/49/42 89/105/42 120/51/42
f 118/47/43 88/106/43 119/49/43
f 86/107/44 118/47/44 117/45/44
f 85/108/45 117/45/45 116/43/45
f 115/41/46 85/108/46 116/43/46
f 114/39/47 84/109/47 115/41/47
f 82/110/48 114/39/48 113/37/48
f 81/111/49 113/37/49 112/98/49
f 111/35/50 81/111/50 112/98/50
f 110/33/51 80/112/51 111/35/51
f 78/113/52 110/33/52 109/31/52
f 77/114/53 109/31/53 108/29/53
f 107/27/54 77/114/54 108/29/54
f 106/25/55 76/115/55 107/27/55
f 74/116/56 106/25/56 105/23/56
f 73/117/57 105/23/57 104/21/57
f 103/19/58 73/117/58 104/21/58
f 102/17/59 72/118/59 103/19/59
f 70/119/60 102/17/60 101/15/60
f 69/120/61 101/15/61 100/13/61
f 99/11/62 69/120/62 100/13/62
f 98/9/63 68/121/63 99/11/63
f 66/122/64 98/9/64 97/7/64
f 65/123/65 97/7/65 128/4/65
f 127/65/66 96/100/66 65/99/66
f 126/63/67 95/124/67 96/100/67
f 94/101/68 95/124/68 126/63/68
f 93/102/69 94/101/69 125/61/69
f 123/57/70 92/103/70 93/102/70
f 122/55/71 91/125/71 92/103/71
f 90/104/72 91/125/72 122/55/72
f 89/105/73 90/104/73 121/53/73
f 119/49/74 88/106/74 89/105/74
f 118/47/75 87/126/75 88/106/75
f 86/107/76 87/126/76 118/47/76
f 85/108/77 86/107/77 117/45/77
f 115/41/78 84/109/78 85/108/78
f 114/39/79 83/127/79 84/109/79
f 82/110/80 83/127/80 114/39/80
f 81/111/81 82/110/81 113/37/81
f 111/35/82 80/112/82 81/111/82
f 110/33/83 79/128/83 80/112/83
f 78/113/84 79/128/84 110/33/84
f 77/114/85 78/113/85 109/31/85
f 107/27/86 76/115/86 77/114/86
f 106/25/87 75/129/87 76/115/87
f 74/116/88 75/129/88 106/25/88
f 73/117/89 74/116/89 105/23/89
f 103/19/90 72/118/90 73/117/90
f 102/17/91 71/130/91 72/118/91
f 70/119/92 71/130/92 102/17/92
f 69/120/93 70/119/93 101/15/93
f 99/11/94 68/121/94 69/120/94
f 98/9/95 67/131/95 68/121/95
f 66/122/96 67/131/96 98/9/96
f 65/123/97 66/122/97 97/7/97
g Cylinder_Cylinder_Bottom
usemtl Bottom
f 2/132/98 66/122/98 65/123/98
f 4/133/99 67/131/99 66/122/99
f 67/131/100 8/134/100 68/121/100
f 68/121/101 10/135/101 69/120/101
f 10/135/102 70/119/102 69/120/102
f 12/136/103 71/130/103 70/119/103
f 71/130/104 16/137/104 72/118/104
f 72/118/105 18/138/105 73/117/105
f 18/138/106 74/116/106 73/117/106
f 20/139/107 75/129/107 74/116/107
f 75/129/108 24/140/108 76/115/108
f 76/115/109 26/141/109 77/114/109
f 26/141/110 78/113/110 77/114/110
f 28/142/111 79/128/111 78/113/111
f 79/128/112 32/143/112 80/112/112
f 80/112/113 34/144/113 81/111/113
f 34/144/114 82/110/114 81/111/114
f 36/145/115 83/127/115 82/110/115
f 83/127/116 40/146/116 84/109/116
f 84/109/117 42/147/117 85/108/117
f 42/147/118 86/107/118 85/108/118
f 44/148/119 87/126/119 86/107/119
f 87/126/120 48/149/120 88/106/120
f 88/106/121 50/150/121 89/105/121
f 50/150/122 90/104/122 89/105/122
f 52/151/123 91/125/123 90/104/123
f 91/125/124 56/152/124 92/103/124
f 92/103/125 58/153/125 93/102/125
f 58/153/126 94/101/126 93/102/126
f 60/154/127 95/124/127 94/101/127
f 38/155/128 22/156/128 6/157/128
f 95/124/129 64/158/129 96/100/129
f 96/100/130 2/159/130 65/99/130
f 2/132/131 4/133/131 66/122/131
f 4/133/132 6/160/132 67/131/132
f 67/131/133 6/160/133 8/134/133
f 68/121/134 8/134/134 10/135/134
f 10/135/135 12/136/135 70/119/135
f 12/136/136 14/161/136 71/130/136
f 71/130/137 14/161/137 16/137/137
f 72/118/138 16/137/138 18/138/138
f 18/138/139 20/139/139 74/116/139
f 20/139/140 22/162/140 75/129/140
f 75/129/141 22/162/141 24/140/141
f 76/115/142 24/140/142 26/141/142
f 26/141/143 28/142/143 78/113/143
f 28/142/144 30/163/144 79/128/144
f 79/128/145 30/163/145 32/143/145
f 80/112/146 32/143/146 34/144/146
f 34/144/147 36/145/147 82/110/147
f 36/145/148 38/164/148 83/127/148
f 83/127/149 38/164/149 40/146/149
f 84/109/150 40/146/150 42/147/150
f 42/147/151 44/148/151 86/107/151
f 44/148/152 46/165/152 87/126/152
f 87/126/153 46/165/153 48/149/153
f 88/106/154 48/149/154 50/150/154
f 50/150/155 52/151/155 90/104/155
f 52/151/156 54/166/156 91/125/156
f 91/125/157 54/166/157 56/152/157
f 92/103/158 56/152/158 58/153/158
f 58/153/159 60/154/159 94/101/159
f 60/154/160 62/167/160 95/124/160
f 6/157/161 4/168/161 2/169/161
f 2/169/128 64/170/128 62/171/128
f 62/171/128 60/172/128 54/173/128
f 60/172/128 58/174/128 54/173/128
f 58/174/128 56/175/128 54/173/128
f 54/173/128 52/176/128 50/177/128
f 50/177/162 48/178/162 46/179/162
f 46/179/128 44/180/128 42/181/128
f 42/181/163 40/182/163 38/155/163
f 38/155/164 36/183/164 34/184/164
f 34/184/128 32/185/128 30/186/128
f 30/186/128 28/187/128 26/188/128
f 26/188/128 24/189/128 22/156/128
f 22/156/128 20/190/128 14/191/128
f 20/190/165 18/192/165 14/191/165
f 18/192/166 16/193/166 14/191/166
f 14/191/128 12/194/128 10/195/128
f 10/195/128 8/196/128 14/191/128
f 8/196/167 6/157/167 14/191/167
f 6/157/128 2/169/128 54/173/128
f 2/169/128 62/171/128 54/173/128
f 54/173/163 50/177/163 46/179/163
f 46/179/128 42/181/128 54/173/128
f 42/181/164 38/155/164 54/173/164
f 38/155/128 34/184/128 30/186/128
f 30/186/128 26/188/128 38/155/128
f 26/188/128 22/156/128 38/155/128
f 22/156/164 14/191/164 6/157/164
f 6/157/128 54/173/128 38/155/128
f 95/124/168 62/167/168 64/158/168
f 96/100/169 64/158/169 2/159/169
